<svg version="1.1" id="Layer_1" xmlns="http://www.w3.org/2000/svg" x="0" y="0" width="1700" height="887.692" viewBox="0 0 300 139.2" xml:space="preserve"><style>.title{fill:#fff}</style><path fill="#FFF" d="M2 9.213V2h23.333v7.213h2V0H0v9.213z" transform="translate(87.278 9.378) scale(3.12602)"/><path fill="#FFF" d="M2 0v7.213h23.333V0h2v9.213H0V0z" transform="translate(87.278 90.4) scale(3.12602)"/><path transform="matrix(.0375 0 0 -.0375 0 75.8)" d="M502 362c49-8 136-50 136-166C638 65 539 0 410 0H59v529L48 700h329c163 0 235-67 235-182 0-118-88-148-110-156zM264 541V431h89c35 0 57 20 57 54 0 29-16 56-55 56h-91zm0-382h106c44 0 61 29 61 61 0 39-28 62-59 62H264V159z" class="title"/><path transform="matrix(.0375 0 0 -.0375 24.9 75.8)" d="M648 469c0-90-44-177-125-213L631 0H415l-87 240h-55V0H59v529L48 700h355c164 0 245-106 245-231zm-293 69h-81V401h81c52 0 76 22 76 69 0 45-24 68-76 68z" class="title"/><path transform="matrix(.0375 0 0 -.0375 50.175 75.8)" d="M510 0l-36 137H265L228 0H16l216 704h285L733 0H510zM310 300h121l-60 226z" class="title"/><path transform="matrix(.0375 0 0 -.0375 78.263 75.8)" d="M477 700h201V0H468L257 363V0H59l-1 541-10 159h220l210-349-1 160v189z" class="title"/><path transform="matrix(.0375 0 0 -.0375 105.9 75.8)" d="M557 638c84-64 119-164 120-284 0-117-41-222-120-288C518 31 450 0 358 0H59v529L48 700h316c97 0 155-32 193-62zM423 211c22 31 29 79 29 144 0 74-11 118-38 146-23 23-54 34-92 34h-49V165h49c47 0 80 17 101 46z" class="title"/><path transform="matrix(.0375 0 0 -.0375 139.612 75.8)" d="M477 700h201V0H468L257 363V0H59l-1 541-10 159h220l210-349-1 160v189z" class="title"/><path transform="matrix(.0375 0 0 -.0375 167.25 75.8)" d="M510 0l-36 137H265L228 0H16l216 704h285L733 0H510zM310 300h121l-60 226z" class="title"/><path transform="matrix(.0375 0 0 -.0375 195.338 75.8)" d="M616 700h298V0H700l-1 186 10 261h-2L578 43H384L256 447h-3l10-261V0H61l-1 485h-1v44L48 700h326l122-386z" class="title"/><path transform="matrix(.0375 0 0 -.0375 231.825 75.8)" d="M554 534H273V426h245V262H273v-96h280V0H59v529L48 700h506V534z" class="title"/></svg>