<?xml version="1.0" encoding="UTF-8"?>
<!DOCTYPE svg PUBLIC "-//W3C//DTD SVG 1.1//EN"
		"http://www.w3.org/Graphics/SVG/1.1/DTD/svg11.dtd">
<svg version="1.1" id="Layer_1"
		xmlns="http://www.w3.org/2000/svg" xmlns:xlink="http://www.w3.org/1999/xlink" x="0px" y="0px"
		width="1700px" height="887.69230769231px" viewBox="0 0 300 139.2"
		style="enable-background:new 0 0 260 119.2;" xml:space="preserve"><style type='text/css'>.title{fill:#89b906;}.slogan{fill:#373e46;}</style><g transform="scale(3.1260175838489) translate(27.919958333333,3)"><g>
	<polygon fill="#89b906" points="2,9.213 2,2 25.333,2 25.333,9.213 27.333,9.213 27.333,0 0,0 0,9.213 	"/>
</g>
</g><g transform="scale(3.1260175838489) translate(27.919958333333,28.918583333333)"><g>
	<polygon fill="#89b906" points="2,0 2,7.213 25.333,7.213 25.333,0 27.333,0 27.333,9.213 0,9.213 0,0 	"/>
</g>
</g><g transform="scale(0.0375) translate(0, 2021.3333333333)"><path transform="translate(0,0) rotate(180) scale(-1, 1)" d="M502 362c49 -8 136 -50 136 -166c0 -131 -99 -196 -228 -196h-351v529l-11 171h329c163 0 235 -67 235 -182c0 -118 -88 -148 -110 -156zM264 541v-110h89c35 0 57 20 57 54c0 29 -16 56 -55 56h-91zM264 159h106c44 0 61 29 61 61c0 39 -28 62 -59 62h-108v-123z" class='title'/><path transform="translate(664,0) rotate(180) scale(-1, 1)" d="M648 469c0 -90 -44 -177 -125 -213l108 -256h-216l-87 240h-55v-240h-214v529l-11 171h355c164 0 245 -106 245 -231zM355 538h-81v-137h81c52 0 76 22 76 69c0 45 -24 68 -76 68z" class='title'/><path transform="translate(1338,0) rotate(180) scale(-1, 1)" d="M510 0l-36 137h-209l-37 -137h-212l216 704h285l216 -704h-223zM310 300h121l-60 226z" class='title'/><path transform="translate(2087,0) rotate(180) scale(-1, 1)" d="M477 700h201v-700h-210l-211 363v-363h-198l-1 541l-10 159h220l210 -349l-1 160v189z" class='title'/><path transform="translate(2824,0) rotate(180) scale(-1, 1)" d="M557 638c84 -64 119 -164 120 -284c0 -117 -41 -222 -120 -288c-39 -35 -107 -66 -199 -66h-299v529l-11 171h316c97 0 155 -32 193 -62zM423 211c22 31 29 79 29 144c0 74 -11 118 -38 146c-23 23 -54 34 -92 34h-49v-370h49c47 0 80 17 101 46z" class='title'/><path transform="translate(3723,0) rotate(180) scale(-1, 1)" d="M477 700h201v-700h-210l-211 363v-363h-198l-1 541l-10 159h220l210 -349l-1 160v189z" class='title'/><path transform="translate(4460,0) rotate(180) scale(-1, 1)" d="M510 0l-36 137h-209l-37 -137h-212l216 704h285l216 -704h-223zM310 300h121l-60 226z" class='title'/><path transform="translate(5209,0) rotate(180) scale(-1, 1)" d="M616 700h298v-700h-214l-1 186l10 261h-2l-129 -404h-194l-128 404h-3l10 -261v-186h-202l-1 485h-1v44l-11 171h326l122 -386z" class='title'/><path transform="translate(6182,0) rotate(180) scale(-1, 1)" d="M554 534h-281v-108h245v-164h-245v-96h280v-166h-494v529l-11 171h506v-166z" class='title'/></g></svg>